<?xml version="1.0" encoding="utf-8"?>
<!-- Generator: Adobe Illustrator 22.1.0, SVG Export Plug-In . SVG Version: 6.00 Build 0)  -->
<svg version="1.1" id="Layer_1" xmlns="http://www.w3.org/2000/svg" xmlns:xlink="http://www.w3.org/1999/xlink" x="0px" y="0px"
	 viewBox="0 0 20 20" style="enable-background:new 0 0 20 20;" xml:space="preserve">
<style type="text/css">
	.st0{fill:#0F4746;}
</style>
<title>iconSVG</title>
<path class="st0" d="M11.1,18c-0.2,0-0.6-0.1-0.9-0.2c-0.2-0.1-0.3-0.2-0.5-0.3c-0.6-0.6-1-1.3-1.2-2.1c-0.1-0.3-0.1-0.6-0.1-0.9
	c0-0.2,0-0.5,0-0.8c0-0.4,0.1-0.8,0.1-1.2c0.1-0.7,0.3-1.4,0.6-2.1c0.2-0.6,0.5-1.2,0.8-1.8C10,8.3,10.1,8,10.2,7.8
	c0.1-0.1,0.2-0.2,0.4-0.2L12.1,8c1,0.2,1.9,0.5,2.7,1c0.6,0.4,1.2,0.8,1.8,1.2c0.4,0.3,0.8,0.6,1.2,0.9c0.2,0.1,0.2,0.3,0.1,0.5
	c-0.1,0.2-0.1,0.3-0.2,0.5c-0.4,0.9-0.9,1.7-1.5,2.5c-0.3,0.4-0.6,0.8-0.9,1.2c-0.5,0.6-1,1.1-1.7,1.5c-0.5,0.3-1.1,0.6-1.8,0.7
	C11.6,17.9,11.4,18,11.1,18z M9.7,13.3L9.7,13.3c0,0.3,0,0.7,0.1,1c0.1,0.6,0.3,1.1,0.7,1.4c0.4,0.3,0.9,0.4,1.4,0.3
	c0.4-0.1,0.8-0.3,1.2-0.5c0.2-0.1,0.4-0.3,0.6-0.4c-0.3,0-0.6,0.1-0.9,0.1c-0.3,0-0.6,0-0.8-0.1c-0.3,0-0.6-0.1-0.8-0.2
	c-0.2-0.2-0.4-0.3-0.6-0.5c-0.2-0.3-0.4-0.6-0.6-0.9C9.8,13.5,9.7,13.4,9.7,13.3z M13.1,12.6c0.3,0.9,1.3,1.4,2.3,1.1c0,0,0,0,0,0
	C15.1,12.8,14.1,12.3,13.1,12.6C13.1,12.6,13.1,12.6,13.1,12.6z M12.3,12.1C12,11.2,11,10.7,10.1,11c0,0,0,0-0.1,0
	C10.3,11.9,11.3,12.4,12.3,12.1C12.2,12.2,12.2,12.1,12.3,12.1z"/>
<path class="st0" d="M7.6,12.3C7,12.1,6.5,11.9,6,11.5c-0.4-0.3-0.8-0.6-1.1-1C4.4,10,4,9.4,3.6,8.7c-0.3-0.5-0.5-1-0.7-1.4
	c-0.3-0.7-0.5-1.4-0.8-2C2,5.1,2,4.8,2.2,4.7c0,0,0.1,0,0.1,0L4,3.6C4.5,3.2,5.1,3,5.7,2.8c0.5-0.1,1-0.3,1.4-0.4
	c0.5-0.1,1-0.2,1.5-0.3S9.4,2,9.8,2c0.3-0.1,0.5,0.1,0.6,0.3c0,0,0,0,0,0.1c0.2,0.5,0.3,1.1,0.5,1.6s0.3,1.2,0.4,1.8
	c0.1,0.3,0.1,0.6,0.1,0.9c0,0.1,0,0.1,0,0.2l-0.5-0.2c-0.6-0.2-1.2,0.1-1.5,0.6C9.2,7.7,9,8.1,8.8,8.6c0,0-0.1,0.1-0.1,0.1
	c-0.8-0.2-1.6,0.2-2,0.9C6.5,10,6.4,10.5,6.3,11c0,0,0,0.1,0,0.1c0.5-0.6,1-1.1,1.7-1.5c0.1,0,0.2-0.1,0.4-0.1
	C8.1,10.4,7.8,11.4,7.6,12.3z M6.5,6.5c-0.9-0.2-1.9,0.4-2,1.3c0,0.1,0,0.1,0,0.2c0.9,0.2,1.8-0.3,2-1.2C6.5,6.7,6.5,6.6,6.5,6.5z
	 M7.7,5.9c0.6,0.7,1.7,0.8,2.4,0.2C10.2,6,10.2,6,10.3,5.9C9.7,5.2,8.6,5.1,7.9,5.8C7.9,5.8,7.8,5.9,7.7,5.9z"/>
</svg>
