<svg id="Layer_1" data-name="Layer 1" xmlns="http://www.w3.org/2000/svg" viewBox="0 0 20 20"><defs><style>.cls-1{fill:#0f4746;fill-rule:evenodd;}</style></defs><title>iconSVG</title><path class="cls-1" d="M8.12,3.83c-.69,0-.89.59-1.18,1.28L6.25,6.3H3.78A1.79,1.79,0,0,0,2,8.17V14.3a1.79,1.79,0,0,0,1.78,1.87H16.12A1.82,1.82,0,0,0,18,14.3V8.17A1.82,1.82,0,0,0,16.12,6.3H13.65l-.59-1.19c-.29-.69-.59-1.28-1.18-1.28ZM3.78,7.58c.39,0,.69.2.69.59a.67.67,0,0,1-.69.6.64.64,0,0,1-.59-.6A.57.57,0,0,1,3.78,7.58Zm6.22,0a3.64,3.64,0,0,1,3.65,3.65,3.7,3.7,0,1,1-7.4,0A3.67,3.67,0,0,1,10,7.58Zm0,1.78a1.88,1.88,0,1,0,0,3.75,2,2,0,0,0,1.88-1.88A1.94,1.94,0,0,0,10,9.36Z"/></svg>