<svg id="Layer_1" data-name="Layer 1" xmlns="http://www.w3.org/2000/svg" viewBox="0 0 20 20"><defs><style>.cls-1{fill:#0f4746;fill-rule:evenodd;}</style></defs><title>iconSVG</title><path class="cls-1" d="M2.51,4.38A.58.58,0,0,0,2,5V15a.58.58,0,0,0,.51.6.59.59,0,0,0,.6-.6V13.49H16.89V15a.58.58,0,0,0,.51.6A.59.59,0,0,0,18,15V12.89c0-.34-.26-.51-.6-.51H3.11V5A.59.59,0,0,0,2.51,4.38ZM5.74,5A1.59,1.59,0,0,0,4.13,6.51,1.67,1.67,0,0,0,5.74,8.13,1.67,1.67,0,0,0,7.36,6.51,1.6,1.6,0,0,0,5.74,5ZM9.49,6A1.59,1.59,0,0,0,7.87,7.62V9.23H4.64a.49.49,0,0,0-.51.51v1a.56.56,0,0,0,.51.59H18V8.64A2.64,2.64,0,0,0,15.28,6Z"/></svg>