<svg id="Layer_1" data-name="Layer 1" xmlns="http://www.w3.org/2000/svg" viewBox="0 0 20 20"><defs><style>.cls-1{fill:#0f4746;fill-rule:evenodd;}</style></defs><title>iconSVG</title><path class="cls-1" d="M10,4.13a.55.55,0,1,0,0,1.1h1.62V6.51L8.55,9l-1-2.73h.34c.68,0,.68-1.1,0-1H5.74a.51.51,0,1,0,0,1h.69l.93,2.56a3.46,3.46,0,0,0-1.62-.43,3.75,3.75,0,0,0,0,7.49,3.78,3.78,0,0,0,3.75-3.74,3.8,3.8,0,0,0-.6-2l3-2.47.51,1.19a3.85,3.85,0,0,0-1.87,3.24,3.75,3.75,0,1,0,3.75-3.75c-.35,0-.6.09-.86.09l-.76-1.79v-2a.55.55,0,0,0-.51-.51ZM5.74,9.49A2.61,2.61,0,0,1,7.36,10l-2,1.7c-.59.43.09,1.28.69.85L8,10.85a2,2,0,0,1,.34,1.28,2.66,2.66,0,0,1-2.64,2.64,2.6,2.6,0,0,1-2.63-2.64A2.54,2.54,0,0,1,5.74,9.49Zm8.52,0a2.6,2.6,0,0,1,2.63,2.64,2.65,2.65,0,0,1-2.63,2.64,2.6,2.6,0,0,1-2.64-2.64,2.47,2.47,0,0,1,1.19-2.22l.93,2.39c.26.68,1.28.25,1-.43l-1-2.38Z"/></svg>