<svg id="Layer_1" data-name="Layer 1" xmlns="http://www.w3.org/2000/svg" viewBox="0 0 20 20"><defs><style>.cls-1{fill:#0f4746;}</style></defs><title>iconSVG</title><path class="cls-1" d="M3.44,13.19v2.4H2.52V7.81H17.43v7.78h-.91V15.5c0-.75,0-1.5,0-2.26,0-.06,0-.09-.05-.1A12.69,12.69,0,0,0,15,12.52c-.34-.12-.67-.23-1-.32s-.59-.15-.89-.21-.63-.13-.94-.17-.79-.09-1.19-.11-.93,0-1.4,0-.66,0-1,.08l-.78.09L7.06,12l-.75.17-.92.27a15.94,15.94,0,0,0-1.7.64Zm2.42-3.4V9.05H5.1v.74Zm3.26,0V9.05H8.36v.74Zm2.5,0h.76V9.05h-.76Zm4-.74h-.77v.74h.77Z"/><path class="cls-1" d="M2,7.54l0-.07c.38-1,.76-2,1.13-3,0-.05,0-.07.08-.07h13.7s0,0,.07.07c.32,1,.64,2,1,3a.31.31,0,0,0,0,.08Z"/></svg>