<svg id="Layer_1" data-name="Layer 1" xmlns="http://www.w3.org/2000/svg" viewBox="0 0 20 20"><defs><style>.cls-1{fill:#0f4746;fill-rule:evenodd;}</style></defs><title>iconSVG</title><path class="cls-1" d="M16.61,16.61H16V16a.57.57,0,0,0-.64-.64h-.64V8.61H16L17.36,6a27.37,27.37,0,0,1-4,0,12.52,12.52,0,0,1-2.67-2.67V2.64A.56.56,0,0,0,10,2a.56.56,0,0,0-.64.64v.64A12.52,12.52,0,0,1,6.69,6,27.37,27.37,0,0,1,2.64,6L4,8.61H5.31v6.72H4.67A.57.57,0,0,0,4,16v.64H3.28a.69.69,0,0,0-.64.64V18H17.36v-.75A.71.71,0,0,0,16.61,16.61ZM9.36,15.33H6.69V8.61H9.36Zm4,0H10.64V8.61h2.67Z"/></svg>