<svg id="Layer_1" data-name="Layer 1" xmlns="http://www.w3.org/2000/svg" viewBox="0 0 8.03 15.93"><defs><style>.cls-1{fill:#124747;}</style></defs><title>iceCream</title><path class="cls-1" d="M14.09,8.61a1.55,1.55,0,0,1-.05.23.77.77,0,0,1-.55.55,3.26,3.26,0,0,1-.93.13H7.4a2.11,2.11,0,0,1-.82-.17.76.76,0,0,1-.5-.66,2.81,2.81,0,0,1,.19-1.35,1,1,0,0,1,.81-.67,1.68,1.68,0,0,1,.7.07l1.33.42a4.59,4.59,0,0,0,1.42.28l.33,0v0l-.18,0a4,4,0,0,1-1.14-.2L9.07,7,8,6.52a1,1,0,0,1-.42-.32.65.65,0,0,1-.14-.63A1.73,1.73,0,0,1,7.64,5a.9.9,0,0,1,.84-.32A3.3,3.3,0,0,1,9.67,5a3,3,0,0,0,.63.24,2.33,2.33,0,0,0,.53,0l.06,0-.11,0a3.82,3.82,0,0,1-1.23-.42c-.31-.15-.64-.27-1-.4a.8.8,0,0,1-.16-.08c-.07,0-.07-.07,0-.14a2.66,2.66,0,0,1,.8-.65l.25-.15A.44.44,0,0,0,9.69,3a.31.31,0,0,0-.16-.26.78.78,0,0,1-.15-.1.18.18,0,0,1,.06-.32A1.72,1.72,0,0,1,10,2.19a1.89,1.89,0,0,1,1.5.52,1.53,1.53,0,0,1,.49,1.12,1.5,1.5,0,0,0,.11.55,1.16,1.16,0,0,0,.36.46,1.45,1.45,0,0,1,.43.46,1.29,1.29,0,0,1,.18.83,1,1,0,0,0,.43,1,1.56,1.56,0,0,1,.55.79c0,.12.06.25.09.38Z" transform="translate(-6.07 -2.18)"/><path class="cls-1" d="M10.06,18.11a.58.58,0,0,1-.23-.34l-1-2.83c-.52-1.43-1-2.85-1.54-4.27a1,1,0,0,1-.07-.35.44.44,0,0,1,.41-.41l.18,0h4.56a.93.93,0,0,1,.24,0,.45.45,0,0,1,.33.59c-.07.27-.17.52-.26.78l-2.28,6.46a.6.6,0,0,1-.24.36Z" transform="translate(-6.07 -2.18)"/></svg>