<svg id="park-15" xmlns="http://www.w3.org/2000/svg" viewBox="0 0 11.98 12.97"><defs><style>.cls-1{fill:#0f4746;}</style></defs><title>park-15</title><path class="cls-1" d="M14,5.75a1.74,1.74,0,0,0-1-1.61A1.24,1.24,0,0,0,11.75,3a1.36,1.36,0,0,0-.29.06A1.2,1.2,0,0,0,10.16,2a1.28,1.28,0,0,0-.7.31h0a1.25,1.25,0,0,0-2.5,0s0,0,0,.05a1.22,1.22,0,0,0-1.72.13A1.18,1.18,0,0,0,5,3.07,1.61,1.61,0,0,0,4.51,3,1.49,1.49,0,0,0,3,4.49a1.43,1.43,0,0,0,.11.58,1.49,1.49,0,0,0,0,2.87A1.49,1.49,0,0,0,6,7.71,1.21,1.21,0,0,0,6.65,8v5L5,14h5L8.4,13V11a6.82,6.82,0,0,1,2.77-2A1.49,1.49,0,0,0,13,7.89a1.55,1.55,0,0,0,0-.37V7.36A1.74,1.74,0,0,0,14,5.75ZM8.4,10.26V6.82a1.53,1.53,0,0,0,1.33.78H10a1.49,1.49,0,0,0,.57,1.12A7.25,7.25,0,0,0,8.4,10.26Z" transform="translate(-2.02 -1.03)"/></svg>