<svg id="Layer_1" data-name="Layer 1" xmlns="http://www.w3.org/2000/svg" viewBox="0 0 20 20"><defs><style>.cls-1{fill:#0f4746;fill-rule:evenodd;}</style></defs><title>iconSVG</title><path class="cls-1" d="M8.89,7.92v2.13H2V7.92Zm2.13,0v2.13h7V7.92ZM3.11,11.07v4.76a1.55,1.55,0,0,0,1.53,1.62H8.89V11.07Zm7.91,0v6.38h4.26a1.56,1.56,0,0,0,1.61-1.62V11.07Zm2.13-8.52A3.11,3.11,0,0,0,10,4.94,3.21,3.21,0,0,0,6.77,2.55a2.14,2.14,0,0,0-2.13,2v.17A1.84,1.84,0,0,0,6.17,6.81h7.06a1.84,1.84,0,0,0,2.13-1.53v-.6a2.11,2.11,0,0,0-2.13-2.13ZM6.77,5.79a1,1,0,0,1-1-.94V4.68a.91.91,0,0,1,.86-1c.08-.08.17-.08.17,0A2.1,2.1,0,0,1,8.89,5.79Zm6.38,0H11a2.11,2.11,0,0,1,2.13-2.13,1.06,1.06,0,0,1,1.11,1,1.11,1.11,0,0,1-.94,1.11Z"/></svg>