<svg id="Layer_1" data-name="Layer 1" xmlns="http://www.w3.org/2000/svg" viewBox="0 0 20 20"><defs><style>.cls-1{fill:#0f4746;fill-rule:evenodd;}</style></defs><title>iconSVG</title><path class="cls-1" d="M17.41,6.57H12.83v4a2.35,2.35,0,0,0,1.74,2.2V16.9H14c-.36,0-.64.19-.64.55A.61.61,0,0,0,14,18h2.29a.59.59,0,0,0,.55-.55.54.54,0,0,0-.55-.55h-.64V12.79a2.35,2.35,0,0,0,1.74-2.2V10.5h0Zm-1.1,4a1.14,1.14,0,0,1-1.19,1.1,1.06,1.06,0,0,1-1.1-1.1V7.76h2.29ZM7.71,4.83V4.29a.59.59,0,0,0,.55-.55.52.52,0,0,0-.55-.55V2.55A.58.58,0,0,0,7.17,2H6a.58.58,0,0,0-.55.55v.64a.48.48,0,0,0-.55.55.53.53,0,0,0,.55.55v.54c0,1.65-2.84,3.57-2.84,5.22V16.9A1.12,1.12,0,0,0,3.69,18H9.45a1.36,1.36,0,0,0,1.1-1.1V10.05C10.55,8.49,7.71,6.39,7.71,4.83ZM6.53,15.71a2.85,2.85,0,0,1-2.84-2.83,2.79,2.79,0,0,1,2.84-2.83,2.81,2.81,0,0,1,2.92,2.83A2.87,2.87,0,0,1,6.53,15.71Z"/></svg>